:SAMPLES-PER-SECOND 30
:FULLY-SPECIFIED
:DEGREES
17
root  -1.66349 40.9281 -0.466059 -166.843 -86.5193 174.839
RightUpLeg  -7.85339 0.311821 -1.51314
RightLeg  -0.497874 -18.8815 0.1097
RightFoot  1.31256 -0.265121 2.47092
RightToes  -3.10096e-008 1.75238e-005 3.56266e-009
Spine  4.62162 -1.09186 -8.07049
Spine1  3.9163 -2.78309 7.47429
HEad  -25.5276 2.07415 7.57779
LeftShoulder1  1.7258 -3.00535 -20.0501
LeftArm  -67.1363 -33.7021 -15.8672
LeftForeArm  94.4528 -80.223 -61.6482
LeftHand  -0.725251 -4.21067 9.04239
RightShoulder  2.88838 5.84111 24.8242
RightArm  -10.5946 -30.3079 40.7053
RightForeArm  72.795 79.0318 59.7276
RightHand  -0.477249 7.2173 -4.73997
LeftUpLeg  -7.23296 -0.270701 2.55918
LeftLeg  -2.95575 16.8385 -1.24003
LeftFoot  2.84511 0.344045 -2.90478
LeftToes  4.7633e-008 1.48299e-008 1.30754e-009
18
root  -1.32416 40.9267 -0.459437 -165.632 -86.0219 174.578
RightUpLeg  -9.25025 0.380256 -1.65588
RightLeg  -1.08831 -18.5668 0.450452
RightFoot  2.19075 -0.238437 2.13536
RightToes  -3.10096e-008 1.75238e-005 3.56266e-009
Spine  5.88614 -0.899809 -8.04131
Spine1  5.16089 -2.65805 6.94558
HEad  -28.3685 2.16811 7.57378
LeftShoulder1  2.03672 -3.89188 -21.1509
LeftArm  -65.4096 -33.3263 -16.1132
LeftForeArm  92.4398 -79.8888 -57.1558
LeftHand  -0.748471 -4.67844 8.91211
RightShoulder  2.96544 5.94147 25.3343
RightArm  -10.4028 -30.2884 41.1646
RightForeArm  66.5689 78.2125 53.2485
RightHand  -0.556196 7.17828 -5.48116
LeftUpLeg  -8.3888 -0.51802 2.57374
LeftLeg  -3.80924 17.6123 -1.51058
LeftFoot  3.88823 0.340517 -2.72262
LeftToes  4.7633e-008 1.48299e-008 1.30754e-009
19
root  -0.985996 40.9184 -0.469755 -166 -86.8578 175.448
RightUpLeg  -9.87986 0.388865 -1.60193
RightLeg  -1.90221 -19.4277 0.964206
RightFoot  3.01586 -0.199946 1.75078
RightToes  -3.10096e-008 1.75238e-005 3.56266e-009
Spine  7.59079 -1.11076 -8.32812
Spine1  7.01576 -3.26211 7.37649
HEad  -31.1042 2.98308 7.87623
LeftShoulder1  2.30103 -4.48435 -22.5261
LeftArm  -61.803 -33.1879 -17.522
LeftForeArm  84.733 -78.3939 -45.8559
LeftHand  -0.76366 -4.47654 9.24862
RightShoulder  2.93815 5.84403 25.3686
RightArm  -9.38288 -29.3083 41.5352
RightForeArm  60.5656 76.9321 45.6438
RightHand  -0.508239 7.10298 -5.07069
LeftUpLeg  -9.44782 -0.756705 2.71946
LeftLeg  -4.1928 17.1342 -1.41844
LeftFoot  4.80265 0.323657 -2.49091
LeftToes  4.7633e-008 1.48299e-008 1.30754e-009
20
root  -0.61555 40.8995 -0.457389 -161.122 -87.3405 171.67
RightUpLeg  -11.66 0.240042 -1.88133
RightLeg  -1.91202 -19.9284 1.23474
RightFoot  3.71026 -0.166836 1.45273
RightToes  -3.10096e-008 1.75238e-005 3.56266e-009
Spine  8.95887 -1.41593 -8.6118
Spine1  8.15834 -3.7893 7.2788
HEad  -33.2291 3.81075 8.19381
LeftShoulder1  2.50821 -5.36885 -21.9443
LeftArm  -56.3103 -31.6238 -20.1484
LeftForeArm  74.9917 -74.4494 -31.1739
LeftHand  -0.909332 -4.35672 11.0923
RightShoulder  3.02277 6.08102 25.4733
RightArm  -8.13586 -28.4306 41.9151
RightForeArm  56.0564 75.0915 37.8152
RightHand  -0.480208 7.6665 -4.62247
LeftUpLeg  -10.9377 -1.24447 2.62386
LeftLeg  -5.1223 17.2021 -1.58918
LeftFoot  6.09059 0.278333 -2.05707
LeftToes  4.7633e-008 1.48299e-008 1.30754e-009
21
root  -0.263837 40.8659 -0.462273 -156.276 -87.6834 168.064
RightUpLeg  -13.7299 0.318356 -2.04836
RightLeg  -1.60224 -20.543 1.21921
RightFoot  4.27371 -0.146508 1.28325
RightToes  -3.10096e-008 1.75238e-005 3.56266e-009
Spine  10.259 -1.44047 -9.51668
Spine1  9.06065 -4.35787 8.38317
HEad  -35.171 4.56224 7.79507
LeftShoulder1  2.54467 -5.67276 -21.3473
LeftArm  -47.9918 -30.4363 -21.6114
LeftForeArm  67.2221 -66.5013 -18.9873
LeftHand  -0.817771 -4.40957 9.96891
RightShoulder  2.80246 5.56507 24.8214
RightArm  -6.39236 -27.207 42.6053
RightForeArm  52.6971 73.0183 31.7806
RightHand  -0.512203 7.86817 -4.84083
LeftUpLeg  -12.7249 -1.36423 2.72765
LeftLeg  -5.61238 17.0661 -1.94635
LeftFoot  7.02123 0.236577 -1.72725
LeftToes  4.7633e-008 1.48299e-008 1.30754e-009
22
root  -0.012809 40.8448 -0.465178 -155.348 -88.5001 168.012
RightUpLeg  -14.6494 0.190021 -2.06143
RightLeg  -2.38717 -21.2894 1.92729
RightFoot  4.92334 -0.0939324 0.89214
RightToes  -3.10096e-008 1.75238e-005 3.56266e-009
Spine  11.3967 -1.91307 -9.47644
Spine1  9.9798 -5.07769 8.44991
HEad  -35.9257 5.56004 7.80193
LeftShoulder1  2.25322 -5.06137 -19.864
LeftArm  -36.9636 -31.4662 -22.8473
LeftForeArm  63.4449 -54.157 -10.4807
LeftHand  -0.664871 -5.16405 7.60414
RightShoulder  2.86184 5.76068 24.8025
RightArm  -5.59704 -26.9733 43.2485
RightForeArm  51.3744 71.4523 28.2796
RightHand  -0.445136 7.40539 -4.39277
LeftUpLeg  -13.9992 -1.42357 2.98443
LeftLeg  -6.06102 16.4215 -2.02384
LeftFoot  7.81786 0.213879 -1.55023
LeftToes  4.7633e-008 1.48299e-008 1.30754e-009
23
root  0.185325 40.8199 -0.462099 -148.247 -88.7681 161.924
RightUpLeg  -15.7735 0.0501762 -2.28181
RightLeg  -2.96493 -21.5365 2.36758
RightFoot  5.42176 -0.0809657 0.800838
RightToes  -3.10096e-008 1.75238e-005 3.56266e-009
Spine  12.2162 -2.11218 -9.25373
Spine1  10.0918 -5.25489 7.99614
HEad  -35.898 5.97746 7.9089
LeftShoulder1  2.36109 -5.59029 -19.4644
LeftArm  -25.1618 -33.0891 -22.7816
LeftForeArm  62.3701 -42.0277 -6.16638
LeftHand  -0.411936 -5.84821 4.59397
RightShoulder  2.90188 5.77568 25.2037
RightArm  -4.93894 -27.4273 43.4327
RightForeArm  50.4001 70.1257 25.9035
RightHand  -0.465312 7.75485 -4.46755
LeftUpLeg  -15.1714 -1.4823 3.06166
LeftLeg  -6.74104 16.2593 -2.41377
LeftFoot  8.53658 0.181963 -1.33518
LeftToes  4.7633e-008 1.48299e-008 1.30754e-009
